<svg width="264" height="280" viewBox="0 0 264 280" fill="none" xmlns="http://www.w3.org/2000/svg">
<circle cx="132" cy="160" r="120" fill="#F2F2F2"/>
<g opacity="0.1">
<path fill-rule="evenodd" clip-rule="evenodd" d="M114.368 167.47C115.911 164.515 119.557 163.371 122.512 164.913C135.125 171.499 140.655 182.255 142.365 192.625C144.035 202.757 142.132 212.697 139.844 218.911C138.692 222.039 135.222 223.641 132.094 222.488C128.966 221.336 127.364 217.867 128.516 214.739C130.244 210.047 131.716 202.243 130.454 194.589C129.231 187.174 125.522 180.103 116.925 175.614C113.97 174.071 112.825 170.425 114.368 167.47Z" fill="black"/>
<path d="M166.626 125.082C142.471 135.933 114.897 157.063 121.699 172.414C127.084 184.566 162.196 180.729 188.772 168.576C210.033 158.854 228.004 149.388 242.558 119.965C215.981 114.848 178.015 119.965 166.626 125.082Z" fill="black"/>
<path d="M85.9339 182.285C100.063 186.004 121.361 183.958 125.393 173.311C128.585 164.882 109.678 149.645 90.9458 142.534C75.96 136.845 62.6964 132.633 41.5527 139.624C51.8409 156.457 66.3048 177.12 85.9339 182.285Z" fill="black"/>
</g>
<path fill-rule="evenodd" clip-rule="evenodd" d="M105.589 160.608C107.132 157.653 110.778 156.509 113.733 158.051C126.346 164.637 131.876 175.393 133.586 185.763C135.256 195.895 133.354 205.835 131.065 212.049C129.913 215.177 126.443 216.779 123.315 215.626C120.187 214.474 118.585 211.005 119.737 207.877C121.466 203.185 122.937 195.381 121.675 187.727C120.453 180.311 116.744 173.241 108.146 168.752C105.191 167.209 104.047 163.563 105.589 160.608Z" fill="#1DA217"/>
<path d="M157.847 118.22C133.692 129.071 106.118 150.201 112.92 165.552C118.305 177.704 153.417 173.867 179.994 161.714C201.255 151.992 219.226 142.526 233.779 113.103C207.203 107.986 169.236 113.103 157.847 118.22Z" fill="#2BD922"/>
<path d="M77.1551 175.423C91.2845 179.142 112.582 177.096 116.614 166.449C119.806 158.02 100.899 142.783 82.167 135.672C67.1812 129.983 53.9176 125.77 32.7738 132.762C43.062 149.595 57.526 170.258 77.1551 175.423Z" fill="#2BD922"/>
</svg>
