<svg xmlns="http://www.w3.org/2000/svg" viewBox="0 0 97 61.525" x="0px" y="0px">\<g data-name="Layer 2"><g><path d="M63.82,9.31a1.5,1.5,0,0,0-1.5,1.5v3.52H61.2a5.93,5.93,0,1,0,0,11.86h5.24a2.93,2.93,0,0,1,0,5.86H58.37a1.5,1.5,0,0,0,0,3h4v3.36a1.5,1.5,0,1,0,3,0V35.05h1.12a5.93,5.93,0,0,0,0-11.86H61.2a2.93,2.93,0,1,1,0-5.86h7.43a1.5,1.5,0,0,0,0-3H65.32V10.81A1.5,1.5,0,0,0,63.82,9.31Z"/><path d="M95.5,0H21.87a1.5,1.5,0,0,0-1.5,1.5V7a1.5,1.5,0,0,0,3,0V3H94V46.22H23.37v-4a1.5,1.5,0,0,0-3,0v5.48a1.5,1.5,0,0,0,1.5,1.5H95.5a1.5,1.5,0,0,0,1.5-1.5V1.5A1.5,1.5,0,0,0,95.5,0Z"/><path d="M34.33,13.64a1.5,1.5,0,0,0-1.5-1.5H1.5a1.5,1.5,0,0,0,0,3H32.83A1.5,1.5,0,0,0,34.33,13.64Z"/><path d="M10.18,24.61a1.5,1.5,0,0,0,1.5,1.5H36a1.5,1.5,0,0,0,0-3H11.68A1.5,1.5,0,0,0,10.18,24.61Z"/><path d="M34.33,35.58a1.5,1.5,0,0,0-1.5-1.5H8.55a1.5,1.5,0,0,0,0,3H32.83A1.5,1.5,0,0,0,34.33,35.58Z"/></g></g></svg>